<?xml version="1.0" encoding="UTF-8"?><svg id="Ebene_1" xmlns="http://www.w3.org/2000/svg" viewBox="0 0 217.67 134.82"><defs><style>.cls-1{fill:#e8e9e4;}</style></defs><path class="cls-1" d="M53.89,11.42l-11.74,4.48,15.36,62.48,12.11-2.98L53.89,11.42Zm59.44,38.21l-8.25-5.23c-1.45,6.94-4.42,11.5-8.23,14.3-3.67,2.7-7.66,3.26-11.18,2.01l18.57-25.74c-8.32-9.47-19.64-9.96-28.36-3.54-10.26,7.55-12.25,20.98-4.97,30.88s20.78,11.83,31.41,4.01c5.65-4.15,9.45-10.34,11.01-16.68Zm-31.88-10.78c3.01-2.21,6.52-2.65,9.69-1.26l-12.32,17.19c-3.37-5.66-2.43-12.22,2.63-15.94Zm38,24.31l12.11-2.98-10.08-41.01-11.74,4.48,9.71,39.5Zm-5.5-48.69c4.15-1.02,6.64-5.01,5.69-8.89-.98-3.98-5.03-6.35-9.18-5.33s-6.55,4.98-5.58,8.96,5.01,6.27,9.07,5.27Zm34.31,8.81c4.24-1.04,7.85,1.07,9.07,6.02l5.69,23.15,12.11-2.98-6.06-24.66c-2.5-10.16-9.65-15.25-19.19-12.9-5.04,1.24-8.82,4.14-10.94,8.12l-1.17-4.77-11.32,4.28,9.71,39.5h0s3.26,13.26,3.26,13.26c-3.79-2.44-8.37-3.19-13.24-2-10.87,2.67-17.6,14.17-14.69,26.01,2.93,11.93,14.23,18.99,25.1,16.32,5.39-1.32,9.35-4.64,11.51-9.2l1.22,4.95,11.05-2.71-15.72-63.98h0s-2.04-8.31-2.04-8.31c-1.24-5.04,1.16-9,5.67-10.11Zm-11.9,78.56c-6.1,1.5-11.87-2.14-13.39-8.33s1.92-12,8.02-13.5,11.87,2.14,13.36,8.24c1.52,6.19-1.99,12.11-8,13.59Zm62.53-66.58c-4.46,.89-8.32-.29-10.98-2.91l27.72-15.47c-3.53-12.1-13.58-17.33-24.2-15.21-12.49,2.49-19.98,13.83-17.57,25.87,2.41,12.05,13.83,19.51,26.77,16.93,6.87-1.37,12.94-5.37,17.03-10.45l-5.26-8.23c-4.25,5.67-8.87,8.55-13.51,9.47Zm-5.54-24.51c3.66-.73,7.03,.36,9.32,2.97l-18.44,10.36c-.66-6.55,2.97-12.1,9.12-13.33ZM41.52,91.12c-4.86,1.19-8.51,3.87-10.89,7.55l-7.25-29.13-.59-2.41,17.31,15.52,14.23-3.5-20.52-17.17,9.85-22.85-13.87,3.41-8.05,20.25L11.65,21.8,0,26.26l12.19,49.58,3.17,12.9,7.15,29.08c3.15,12.81,14.69,19.35,27.41,16.22,12.9-3.17,20.12-14.6,17.1-26.88s-14.18-18.82-25.49-16.04Zm5.94,32.56c-6.1,1.5-11.84-2.06-13.36-8.24s1.99-12.11,8.18-13.63,11.84,2.06,13.36,8.24-1.99,12.11-8.18,13.63Zm49.04-20.86c1.22,4.95-1.09,8.89-5.51,9.98-4.15,1.02-7.68-1.11-8.87-5.97l-5.89-23.95-11.65,4.46,5.89,23.95c2.5,10.16,9.47,15.29,18.93,12.97,4.95-1.22,8.65-4.09,10.76-8.08l1.02,4.15,11.75-2.89-10.1-41.09-11.74,4.48,5.41,22.01Zm64.86-33.85c-6.04,10.7-2.26,23.81,9.24,30.29,6.1,3.44,13.31,4.38,19.73,3.19l1.38-9.67c-6.92,1.53-12.3,.69-16.42-1.64-3.96-2.24-6.11-5.65-6.42-9.37l31.1,6.37c5.22-11.47,1.02-21.99-8.41-27.32-11.1-6.26-24.16-2.56-30.2,8.14Zm30.84,8.31l-20.74-4.18c3.78-5.39,10.14-7.23,15.61-4.15,3.25,1.83,5.09,4.86,5.12,8.33Z"/></svg>